<?xml version="1.0" standalone="no"?>
<!DOCTYPE svg PUBLIC "-//W3C//DTD SVG 20010904//EN"
 "http://www.w3.org/TR/2001/REC-SVG-20010904/DTD/svg10.dtd">
<svg version="1.0" xmlns="http://www.w3.org/2000/svg"
 width="512.000000pt" height="512.000000pt" viewBox="0 0 512.000000 512.000000"
 preserveAspectRatio="xMidYMid meet">
<metadata>
Created by potrace 1.11, written by Peter Selinger 2001-2013
</metadata>
<g transform="translate(0.000000,512.000000) scale(0.100000,-0.100000)"
fill="#000000" stroke="none">
<path d="M327 4339 c-58 -20 -99 -57 -127 -115 -20 -43 -20 -57 -20 -1164 l0
-1121 25 -24 24 -25 1248 0 c686 0 1257 3 1269 6 52 14 51 -30 49 1174 -1
1234 3 1154 -66 1221 -68 66 11 62 -1229 63 -1010 1 -1130 -1 -1173 -15z"/>
<path d="M3144 3899 c-60 -8 -99 -31 -122 -73 -15 -28 -16 -124 -18 -1081 -1
-577 -2 -1055 -3 -1062 -1 -8 -139 -11 -543 -11 -299 -1 -552 -1 -562 -1 -19
-1 -19 -2 1 -20 34 -32 93 -107 93 -120 0 -6 4 -11 8 -11 14 0 71 -150 72
-187 0 -13 6 -24 13 -24 50 -5 1171 -3 1178 2 5 3 12 18 15 33 15 84 80 209
147 283 59 66 203 153 276 168 9 2 36 8 60 14 103 23 276 -4 381 -60 62 -34
74 -43 145 -114 90 -89 164 -230 165 -310 0 -20 6 -20 298 -19 360 2 327 -1
352 26 18 20 20 35 20 149 0 127 -9 173 -36 183 -8 3 -59 6 -114 7 l-100 1 0
522 c0 552 -3 593 -49 699 -18 42 -85 153 -101 167 -3 3 -25 37 -50 75 -25 39
-47 72 -50 75 -4 3 -53 75 -110 160 -188 281 -212 314 -270 371 -69 66 -168
120 -265 144 -59 15 -125 17 -425 19 -195 0 -378 -2 -406 -5z m879 -430 c18
-19 99 -132 182 -250 82 -118 152 -216 155 -219 14 -13 30 -52 30 -72 -1 -13
-10 -34 -21 -47 l-20 -24 -467 0 c-257 0 -480 3 -495 7 -49 12 -53 37 -52 330
l1 269 25 22 c25 21 32 21 328 21 l303 -1 31 -36z"/>
<path d="M70 1668 c-64 -11 -69 -24 -70 -170 0 -139 7 -172 42 -184 36 -12
848 -11 849 1 6 78 78 227 148 305 23 25 41 47 41 50 0 8 -964 6 -1010 -2z"/>
<path d="M1364 1656 c-208 -59 -347 -254 -331 -465 6 -86 11 -104 47 -177 52
-107 170 -202 288 -234 95 -25 236 -9 327 37 52 27 136 105 170 157 153 241
51 555 -215 665 -71 30 -212 38 -286 17z m222 -237 c127 -60 163 -233 72 -344
-55 -66 -163 -99 -242 -73 -84 28 -154 117 -160 202 -6 101 77 215 171 232 15
3 29 7 31 8 9 9 88 -6 128 -25z"/>
<path d="M3728 1651 c-124 -40 -217 -121 -276 -240 -36 -73 -37 -77 -37 -190
0 -100 4 -123 24 -171 55 -125 154 -217 281 -260 59 -20 206 -30 228 -16 5 3
20 7 34 10 86 15 195 95 257 186 143 215 77 502 -147 638 -102 62 -250 79
-364 43z m223 -225 c85 -36 139 -123 135 -217 -8 -165 -169 -259 -326 -191
-72 31 -129 129 -123 212 11 159 168 257 314 196z"/>
</g>
</svg>
